<?xml version="1.0" encoding="UTF-8" standalone="no"?>
<svg
   xmlns:dc="http://purl.org/dc/elements/1.1/"
   xmlns:cc="http://creativecommons.org/ns#"
   xmlns:rdf="http://www.w3.org/1999/02/22-rdf-syntax-ns#"
   xmlns:svg="http://www.w3.org/2000/svg"
   xmlns="http://www.w3.org/2000/svg"
   xmlns:sodipodi="http://sodipodi.sourceforge.net/DTD/sodipodi-0.dtd"
   xmlns:inkscape="http://www.inkscape.org/namespaces/inkscape"
   width="210mm"
   height="70mm"
   viewBox="0 0 210 70"
   version="1.1"
   id="svg3461"
   inkscape:version="1.0.1 (1.0.1+r73)"
   sodipodi:docname="nlogbanner.svg">
  <defs
     id="defs3455" />
  <sodipodi:namedview
     id="base"
     pagecolor="#ffffff"
     bordercolor="#666666"
     borderopacity="1.0"
     inkscape:pageopacity="0.0"
     inkscape:pageshadow="2"
     inkscape:zoom="0.7"
     inkscape:cx="577.28612"
     inkscape:cy="18.342357"
     inkscape:document-units="mm"
     inkscape:current-layer="text880"
     inkscape:document-rotation="0"
     showgrid="false"
     units="mm"
     height="100mm"
     inkscape:window-width="1861"
     inkscape:window-height="1025"
     inkscape:window-x="59"
     inkscape:window-y="27"
     inkscape:window-maximized="1"
     showguides="true"
     inkscape:guide-bbox="true"
     inkscape:snap-global="false">
    <sodipodi:guide
       position="112.64249,14.335444"
       orientation="0,-1"
       id="guide882" />
    <sodipodi:guide
       position="86.077827,57.780673"
       orientation="0,-1"
       id="guide966" />
  </sodipodi:namedview>
  <metadata
     id="metadata3458">
    <rdf:RDF>
      <cc:Work
         rdf:about="">
        <dc:format>image/svg+xml</dc:format>
        <dc:type
           rdf:resource="http://purl.org/dc/dcmitype/StillImage" />
        <dc:title></dc:title>
      </cc:Work>
    </rdf:RDF>
  </metadata>
  <g
     inkscape:label="Layer 1"
     inkscape:groupmode="layer"
     id="layer1">
    <path
       d="M 74.049553,43.550078 V 26.790839 q 0,-5.903821 -3.840701,-5.903821 h -9.141279 v 22.66306 h 5.649891 V 27.013022 q 0,-1.618703 0.794133,-1.618703 0.88859,0 0.88859,1.587042 V 43.550148 Z M 59.480531,45.13712 V 19.299976 h 10.728321 q 2.697954,0 4.126344,2.126651 1.301399,1.967928 1.301399,5.364212 V 45.13712 Z"
       style="font-style:normal;font-variant:normal;font-weight:normal;font-stretch:normal;font-size:70.2575px;line-height:1.25;font-family:'Eight Track program 3';-inkscape-font-specification:'Eight Track program 3, ';letter-spacing:6.38969px;word-spacing:0px;fill:#800000;fill-opacity:1;stroke:none;stroke-width:0.793523"
       id="path3175" />
    <path
       d="m 152.59215,45.13712 q -3.33291,0 -5.55473,-1.904451 -2.69796,-2.348833 -2.69796,-7.01475 v -7.998724 q 0,-4.665935 2.69796,-7.014768 2.22182,-1.904451 5.55473,-1.904451 3.07876,0 5.23726,1.999677 2.63446,2.412311 2.63446,6.919542 v 7.998724 q 0,4.63417 -2.5393,6.98302 -2.09484,1.936181 -5.33242,1.936181 z m 6.28468,-8.919201 v -2.253607 h -5.45941 v 3.967605 q 0,1.523546 -0.98479,1.523546 -0.85711,0 -0.85711,-1.42839 v -5.776847 h 7.30043 v -4.031101 q 0,-3.777188 -2.12667,-5.745117 -1.7142,-1.587042 -4.158,-1.587042 -2.76163,0 -4.50732,1.523546 -2.15833,1.872703 -2.15833,5.808595 v 7.998724 q 0,3.935875 2.15833,5.808595 1.74569,1.523547 4.50732,1.523547 2.63446,0 4.25316,-1.523547 2.03151,-1.87272 2.03151,-5.808595 z m -5.45941,-6.983021 v -2.729719 q 0,-1.523547 -0.98479,-1.523547 -0.85711,0 -0.85711,1.428391 v 2.824945 z"
       style="font-style:normal;font-variant:normal;font-weight:normal;font-stretch:normal;font-size:70.2575px;line-height:1.25;font-family:'Eight Track program 3';-inkscape-font-specification:'Eight Track program 3, ';letter-spacing:6.38969px;word-spacing:0px;fill:#800000;fill-opacity:1;stroke:none;stroke-width:0.793523"
       id="path3185" />
    <path
       d="m 207.33277,32.535956 q 1.46058,1.809242 1.46058,4.60244 0,7.998724 -8.28435,7.998724 -7.52258,0 -7.52258,-7.713046 v -5.046822 h 1.17371 q -1.01628,-1.364895 -1.01628,-4.570692 0,-8.506584 7.87172,-8.506584 2.76145,0 4.79296,1.396555 2.76145,1.904451 2.76145,5.808595 v 6.030778 z m -0.12244,4.60244 q 0,-3.047128 -2.09483,-4.538961 -1.58652,-1.110912 -3.87254,-1.110912 -1.17371,0.06297 -1.26991,-0.571287 v -4.411987 q 0,-1.301399 0.92007,-1.301399 0.85711,0 0.85711,1.301399 v 4.443665 h 5.23725 v -4.443735 q 0,-3.047146 -2.095,-4.507214 -1.58652,-1.110912 -3.87237,-1.110912 -3.80886,0 -5.26891,2.348833 -1.01628,1.587042 -1.01628,4.570709 0,2.920172 1.26991,4.189806 1.04777,1.015755 3.49156,1.269563 0.34984,0.03149 1.68273,0.634782 0.57198,1.110912 0.57198,1.523547 v 2.539284 q 0,1.269564 -1.01628,1.269564 -0.92007,0 -0.92007,-1.206243 v -4.062831 h -5.23726 v 3.459762 q 0,3.364536 1.618,4.824622 1.39586,1.301399 4.31683,1.301399 3.23758,0 4.85629,-1.364895 1.84102,-1.555381 1.84102,-5.046821 z"
       style="font-style:normal;font-variant:normal;font-weight:normal;font-stretch:normal;font-size:70.2575px;line-height:1.25;font-family:'Eight Track program 3';-inkscape-font-specification:'Eight Track program 3, ';letter-spacing:6.38969px;word-spacing:0px;fill:#800000;fill-opacity:1;stroke:none;stroke-width:0.793523"
       id="path3191" />
    <path
       d="m 140.67298,32.535956 q 1.46058,1.809242 1.46058,4.60244 0,7.998724 -8.28453,7.998724 -7.52257,0 -7.52257,-7.713046 v -5.046822 h 1.17371 q -1.01628,-1.364895 -1.01628,-4.570692 0,-8.506584 7.87171,-8.506584 2.76145,0 4.79279,1.396555 2.76145,1.904451 2.76145,5.808595 v 6.030778 z m -0.12244,4.60244 q 0,-3.047128 -2.09501,-4.538961 -1.58652,-1.110912 -3.87236,-1.110912 -1.17371,0.06297 -1.26991,-0.571287 v -4.411987 q 0,-1.301399 0.92007,-1.301399 0.85711,0 0.85711,1.301399 v 4.443665 h 5.23725 v -4.443735 q 0,-3.047146 -2.09483,-4.507214 -1.58652,-1.110912 -3.87236,-1.110912 -3.80887,0 -5.26909,2.348833 -1.01628,1.587042 -1.01628,4.570709 0,2.920172 1.26991,4.189806 1.04777,1.015755 3.49156,1.269563 0.34984,0.03149 1.68272,0.634782 0.57199,1.110912 0.57199,1.523547 v 2.539284 q 0,1.269564 -1.01628,1.269564 -0.92008,0 -0.92008,-1.206243 v -4.062831 h -5.23725 v 3.459762 q 0,3.364536 1.618,4.824622 1.39586,1.301399 4.31666,1.301399 3.23758,0 4.85645,-1.364895 1.84103,-1.555381 1.84103,-5.046821 z"
       style="font-style:normal;font-variant:normal;font-weight:normal;font-stretch:normal;font-size:70.2575px;line-height:1.25;font-family:'Eight Track program 3';-inkscape-font-specification:'Eight Track program 3, ';letter-spacing:6.38969px;word-spacing:0px;fill:#800000;fill-opacity:1;stroke:none;stroke-width:0.793523"
       id="path3183" />
    <g
       aria-label="the wönderland"
       id="text880"
       style="font-style:normal;font-variant:normal;font-weight:normal;font-stretch:normal;font-size:20.1834px;line-height:1.25;font-family:Chick;-inkscape-font-specification:Chick;letter-spacing:4.20047px;word-spacing:19.4328px;fill:#000000;fill-opacity:1;stroke:#ffffff;stroke-width:0;stroke-miterlimit:4;stroke-dasharray:none"
       transform="matrix(0.77044046,0,0,0.77044046,45.904122,8.7231703)">
      <path
         style="fill:#000000;stroke-width:0;stroke-miterlimit:4;stroke-dasharray:none"
         d="m -33.057692,65.849678 -4.16258,-1.118514 -3.428039,-2.008922 -3.428167,-2.00908 -3.431855,-3.218573 -3.431961,-3.21863 -2.438392,-4.056244 -2.438398,-4.056207 -1.172457,-4.530704 -1.172449,-4.53086 v -4.241703 -4.241538 l 1.179794,-4.530857 1.179798,-4.530704 1.99782,-3.409634 1.997826,-3.409722 3.218619,-3.4319311 3.218578,-3.4318876 4.056204,-2.4383891 4.056243,-2.43838164 4.530833,-1.17247618 4.530713,-1.17245898 h 4.241684 4.241581 l 4.530806,1.17245898 4.530735,1.17247618 4.0561882,2.43838164 4.0562642,2.4383891 3.21859185,3.4318876 3.21861385,3.4319311 1.9977651,3.409722 1.9978519,3.409634 1.1797869,4.530704 1.179793,4.530857 v 4.241538 4.241703 l -1.172446,4.53086 -1.1724568,4.530704 -2.4383673,4.056207 -2.4384018,4.056244 -3.43190895,3.21863 -3.43194225,3.218573 -3.4096833,1.997795 -3.4096486,1.997834 -4.530735,1.179785 -4.530806,1.179788 -4.591394,-0.04998 -4.591393,-0.04998 z m 22.995157,-3.140844 5.1493046,-2.41913 4.19434485,-4.194352 4.19434655,-4.194294 2.4390683,-5.14932 2.4391732,-5.149379 V 32.860241 24.118288 L 5.9325156,19.007293 3.5114033,13.89642 -0.0801533,10.056851 -3.6715591,6.2172797 -9.4023185,3.3850035 -15.133112,0.55270987 h -8.820766 -8.820954 l -5.730746,2.83229363 -5.730732,2.8322762 -3.591459,3.8395713 -3.591471,3.839569 -2.421155,5.110873 -2.421147,5.110995 v 8.741953 8.742118 l 2.354564,4.941227 2.354559,4.941094 3.586828,3.968236 3.586857,3.968231 5.461263,2.623566 5.46138,2.623575 1.520289,0.39189 1.520333,0.391877 7.601814,-0.162 7.601762,-0.162044 z m -18.789788,-2.473719 -2.997962,-0.577133 -1.626475,-2.039756 -1.626458,-2.039825 -0.0512,-0.906559 -0.05111,-0.906607 -1.693564,-4.941154 -1.693481,-4.941162 -1.075652,-2.209481 -1.07567,-2.209585 0.717634,-0.717678 0.717689,-0.717576 0.480569,1.514229 0.48065,1.51425 2.282973,0.335074 2.282947,0.335052 -0.467936,-3.120662 -0.468032,-3.120688 1.627277,-1.472577 1.627215,-1.47257 0.614331,0.993984 0.614322,0.994091 1.948366,-2.101197 1.948294,-2.101212 h 2.33829 2.338254 l 1.704236,1.533793 1.704187,1.533768 1.330329,0.469498 1.330291,0.46957 0.02319,-0.926387 0.02306,-0.926388 0.827464,1.424402 0.827524,1.42438 -0.468473,3.41813 -0.468616,3.41812 1.078735,-0.895186 1.0787,-0.895214 2.254097,-4.30046 1.0764835,2.678463 -0.170764,4.869821 v 1.274477 l -1.5116355,3.293763 -1.511634,3.293757 -1.488059,2.572349 -1.488023,2.572283 -3.815017,2.178818 -3.81496,2.178754 -1.357216,-0.08731 -1.357258,-0.0875 z m 2.369588,-12.761839 0.891955,-0.56736 -0.131807,-2.651723 -0.131779,-2.651834 2.366332,-0.506186 2.194743,0.506186 0.24485,2.135404 0.244923,2.135425 1.195297,0.458734 1.195377,0.458661 1.030368,-1.409063 1.030356,-1.409089 v -2.206432 -2.206407 l -1.520404,-0.397564 -1.520328,-0.397606 v -0.777345 -0.777432 l -3.933646,0.465848 -3.933636,0.465888 -0.437409,0.645665 -0.43741,0.645663 -1.330283,0.49089 -1.330284,0.49083 v 1.188583 1.188473 l 1.101439,2.636185 1.101499,2.636235 0.608916,-0.01141 0.608902,-0.01141 z m -14.927665,11.646548 -0.918712,-1.10699 0.490396,-0.793476 0.490389,-0.793487 h 0.525249 0.525306 v 1.900425 1.900449 h -0.09697 -0.09699 z m 33.9270255,-0.920221 -0.506819,-0.506787 v -0.633481 -0.633464 h 0.6149182 0.6148746 l 1.4756706,1.116105 1.4755752,1.116116 -1.583723,0.02415 -1.5836738,0.02415 z M -41.318013,32.860241 v -1.900373 l 0.383419,0.950267 0.383466,0.950106 -0.383466,0.950271 -0.383419,0.950267 z m -1.64046,-3.040647 v -0.760176 h 0.805114 0.805032 l -0.469816,0.760176 -0.469781,0.760207 h -0.335191 -0.335358 z m 13.029453,-10.265533 -0.08026,0.408915 -1.652349,0.106432 -1.822189,-0.359098 -2.254333,-0.06287 -3.402506,0.756387 -0.125764,-1.518899 4.519291,-0.714752 4.331674,-0.451339 2.77346,0.826323 2.773461,0.826348 1.766741,-1.23742 1.766684,-1.237498 2.301427,0.0046 2.301464,0.0046 2.921973,0.811326 2.921877,0.811443 0.41117,-0.411201 0.411099,-0.411079 -0.996916,-2.49499 -0.996999,-2.494993 -1.956089,-2.7952313 -1.955949,-2.795126 -1.905734,-1.1295848 -1.905686,-1.1295967 -3.795623,-0.1612197 -3.795642,-0.1612557 -1.284125,0.5387688 -1.284136,0.5387846 -1.316769,-0.7368633 -1.316717,-0.7369168 2.373083,-1.2271626 2.37316,-1.2271959 h 1.82466 1.82475 l 2.583987,0.8651868 2.584059,0.8651507 2.473334,1.8362043 2.473288,1.836234 2.803972,4.3302876 2.803878,4.330247 0.1574079,5.300302 0.1387753,7.798902 -1.0448664,-3.953255 -1.0636428,-1.454632 -0.03348,-1.185042 -0.03331,-1.185047 -1.056528,2.964757 -1.056507,2.964752 -1.000608,0.634493 -1.000573,0.634447 -2.85789,0.01153 -2.857883,0.01128 -2.083358,-3.01183 -2.083244,-3.011941 -0.550561,-0.02881 -0.550596,-0.02887 -1.167689,2.258013 -1.167669,2.258003 -1.462519,0.782791 -1.462534,0.78263 h -2.656203 -2.65636 l -1.194567,-1.194447 -1.19455,-1.194568 V 25.20462 24.498677 h -1.140294 -1.140303 v 1.900478 1.900433 h -0.673892 -0.673928 l -0.372152,-2.471096 -0.372224,-2.470616 0.583954,-4.199038 0.584032,-4.199133 1.136205,-2.719549 1.136356,-2.7195714 2.556575,-1.7629293 2.556592,-1.7629839 -2.045684,2.2201048 -2.045703,2.2200898 -1.548472,3.420817 -1.548449,3.420827 0.04336,3.04065 0.0433,3.040716 0.434032,-1.140237 0.434036,-1.140285 0.836295,-0.55847 0.836263,-0.558499 0.481455,-0.01141 0.122338,-0.143547 0.800129,-0.276705 1.90937,-0.02023 m 6.019733,6.847259 1.689514,-1.183382 -0.0231,-1.287181 -1.160946,-3.830777 -3.180807,0.213805 -3.264846,-0.328299 -2.318603,0.703623 0.374799,2.001985 -0.308807,2.232991 -2e-5,0.418097 -1.1e-5,0.418099 0.912267,0.912185 0.912153,0.912248 h 2.339454 2.339465 z m 16.46989,-0.506138 1.18337,-1.68949 V 22.521961 20.88375 l -1.131915,-0.939434 -1.131953,-0.939374 -2.668984,0.500684 -2.668922,0.500662 -2.756223,-0.0806 -0.34032,1.142156 0.05491,1.530191 v 0.467607 0.467565 l 1.575504,2.003009 1.575537,2.002989 h 2.562338 2.562397 z"
         id="path860"
         inkscape:connector-curvature="0"
         sodipodi:nodetypes="ccccccccccccccccccccccccccccccccccccccccccccccccccccccccccccccccccccccccccccccccccccccccccccccccccccccccccccccccccccccccccccccccccccccccccccccccccccccccccccccccccccccccccccccccccccccccccccccccccccccccccccccccccccccccccccccccccccccccccccccccccccccccccccccccccccccccccccccccccccccccccccccccccccccccccccccccccccccccccccccccccccccccccccc"
         inkscape:export-xdpi="96"
         inkscape:export-ydpi="96" />
      <text
         xml:space="preserve"
         style="font-style:normal;font-variant:normal;font-weight:normal;font-stretch:normal;font-size:13.7367px;line-height:1.25;font-family:Sawasdee;-inkscape-font-specification:Sawasdee;letter-spacing:5.02764px;word-spacing:31.1px;fill:#800080;fill-opacity:1;stroke:#800000;stroke-width:0;stroke-miterlimit:4;stroke-dasharray:none"
         x="18.409327"
         y="58.723797"
         id="text1074"><tspan
           sodipodi:role="line"
           id="tspan1072"
           x="18.409327"
           y="58.723797"
           style="font-style:normal;font-variant:normal;font-weight:normal;font-stretch:normal;font-family:Sawasdee;-inkscape-font-specification:Sawasdee;fill:#800080;stroke:#800000;stroke-width:0;stroke-miterlimit:4;stroke-dasharray:none">the wönderland</tspan></text>
    </g>
    <path
       d="m 89.293939,20.379175 q 0.03498,-0.06297 -0.253633,-0.253982 l -3.650215,-1.809242 -0.157427,-4.126327 q 0.03498,-0.285643 -0.06997,-0.317479 -0.06997,-0.03148 -0.285118,0.190487 l -2.856606,2.951902 -3.967693,-1.079252 q -0.349838,-0.09446 -0.381324,0 0,0 0.122444,0.285644 l 1.999677,3.396284 -2.412312,3.618466 q -0.06997,0.06297 -0.157427,0.222148 -0.03498,0.09446 0.06997,0.127691 0.03498,0.03148 0.285118,-0.03149 l 4.18984,-0.825269 0.857105,1.206068 h -3.23758 v 19.615271 h 5.649891 V 23.934181 h -0.08746 l 0.316604,-2.221876 3.74537,-1.206243 q 0.122444,0 0.285118,-0.127691 z m -1.841025,-0.190487 -2.951937,0.888765 -0.47578,3.52324 -1.904521,-2.856675 -3.364571,0.825268 2.063172,-2.920154 -1.586517,-2.602763 3.047093,0.920425 2.221824,-2.412328 0.06997,3.301075 z M 85.738705,20.029512 83.86602,19.331234 v -2.09492 l -1.395855,1.523547 -1.80919,-0.666618 -0.03498,0.03149 0.984796,1.587042 -1.36437,1.777494 0.03498,0.06297 2.158504,-0.571286 1.142222,1.840972 0.03498,-0.03148 0.253633,-2.221877 1.841025,-0.50779 z m -7.93521,25.1071 V 25.108064 q -0.222148,0.06297 -0.444295,0.06297 -0.729413,0 -1.206943,-0.47613 -0.507265,-0.507791 -0.507265,-1.174408 0,-0.571286 0.349838,-1.079251 l 1.936181,-2.856693 -1.586517,-2.729719 q -0.253633,-0.47613 -0.253633,-0.95226 0,-0.698278 0.507265,-1.142748 0.475781,-0.47613 1.206943,-0.47613 0.316604,0 0.666442,0.09446 l 3.047093,0.856929 2.221824,-2.285355 q 0.634957,-0.666617 1.42909,-0.666617 0.729413,0 1.206943,0.539626 0.507266,0.539626 0.444295,1.396555 l 0.122443,3.078876 2.856606,1.46005 q 1.079252,0.539626 1.079252,1.587042 0,1.301399 -1.429091,1.682199 h 0.03498 l -2.793285,0.888764 -0.06997,1.174408 v 21.044252 z"
       style="font-style:normal;font-variant:normal;font-weight:normal;font-stretch:normal;font-size:70.2575px;line-height:1.25;font-family:'Eight Track program 3';-inkscape-font-specification:'Eight Track program 3, ';letter-spacing:6.38969px;word-spacing:0px;fill:#800000;fill-opacity:1;stroke:none;stroke-width:0.793523;image-rendering:auto"
       id="path3177" />
    <path
       d="m 105.12205,46.787657 q -0.035,4.665918 -2.72962,7.014751 -2.19018,1.904451 -5.52309,1.904451 -3.23758,0 -5.332412,-1.936199 -2.539303,-2.348833 -2.539303,-6.983003 v -3.840666 h 1.269914 q -1.269914,-1.967929 -1.269914,-5.300735 v -18.34628 h 16.156255 z m -1.55504,-3.237579 v -22.66306 h -5.649904 v 16.537056 q 0,1.618877 -0.794133,1.618877 -0.88859,0 -0.88859,-1.587042 V 20.887123 h -5.64989 v 16.759238 q 0,5.903822 3.840701,5.903822 h 3.459727 v 0 5.046821 q 0,1.428391 -0.857104,1.428391 -0.984795,0 -0.984795,-1.523547 v -3.967622 h -5.459404 v 2.253624 q 0,3.935875 2.031512,5.808595 1.618003,1.523546 4.253161,1.523546 2.761624,0 4.507319,-1.523546 2.15835,-1.87272 2.15835,-5.808595 v -3.23758 z"
       style="font-style:normal;font-variant:normal;font-weight:normal;font-stretch:normal;font-size:70.2575px;line-height:1.25;font-family:'Eight Track program 3';-inkscape-font-specification:'Eight Track program 3, ';letter-spacing:6.38969px;word-spacing:0px;fill:#800000;fill-opacity:1;stroke:none;stroke-width:0.793523"
       id="path3179" />
    <path
       d="m 115.75959,45.13712 q -3.33274,0 -5.55474,-1.904451 -2.69795,-2.348833 -2.69795,-7.01475 v -7.998724 q 0,-4.665935 2.69795,-7.014768 2.222,-1.904451 5.55474,-1.904451 3.33273,0 5.55473,1.904451 2.69796,2.348833 2.69796,7.014768 v 7.998724 q 0,4.665917 -2.69796,7.01475 -2.222,1.904451 -5.55473,1.904451 z m 6.66564,-8.919201 v -7.998724 q 0,-3.935893 -2.1585,-5.808595 -1.74569,-1.523547 -4.50714,-1.523547 -2.76145,0 -4.50715,1.523547 -2.1585,1.872702 -2.1585,5.808595 v 7.998724 q 0,3.935874 2.1585,5.808595 1.7457,1.523546 4.50715,1.523546 2.76145,0 4.50714,-1.523546 2.1585,-1.872721 2.1585,-5.808595 z m -5.64989,1.333059 v -11.10933 q 0,-1.460051 -1.01628,-1.460051 -1.01628,0 -1.01628,1.460051 v 11.10933 q 0,1.460051 1.01628,1.460051 1.01628,0 1.01628,-1.460051 z"
       style="font-style:normal;font-variant:normal;font-weight:normal;font-stretch:normal;font-size:70.2575px;line-height:1.25;font-family:'Eight Track program 3';-inkscape-font-specification:'Eight Track program 3, ';letter-spacing:6.38969px;word-spacing:0px;fill:#800000;fill-opacity:1;stroke:none;stroke-width:0.793523"
       id="path3181" />
    <path
       d="M 171.73461,33.837338 V 45.13712 h -8.82397 V 19.299976 h 8.25269 q 3.33273,0 5.55473,1.904451 2.69796,2.348833 2.69796,7.014768 v 5.618143 z m 6.09436,-1.587042 v -4.031101 q 0,-3.935893 -2.1585,-5.808595 -1.74569,-1.523547 -4.50714,-1.523547 h -6.66565 v 22.66306 h 5.64989 V 26.886065 q 0,-1.46005 1.01628,-1.46005 1.01628,0 1.01628,1.46005 v 5.364231 z"
       style="font-style:normal;font-variant:normal;font-weight:normal;font-stretch:normal;font-size:70.2575px;line-height:1.25;font-family:'Eight Track program 3';-inkscape-font-specification:'Eight Track program 3, ';letter-spacing:6.38969px;word-spacing:0px;fill:#800000;fill-opacity:1;stroke:none;stroke-width:0.793523"
       id="path3187" />
    <path
       d="m 193.28204,20.379175 q 0.035,-0.06297 -0.25363,-0.253982 l -3.65022,-1.809242 -0.15743,-4.126327 q 0.035,-0.285643 -0.07,-0.317479 -0.07,-0.03148 -0.28512,0.190487 l -2.85661,2.951902 -3.96769,-1.079252 q -0.34984,-0.09446 -0.38132,0 0,0 0.12244,0.285644 l 1.99968,3.396284 -2.41232,3.618466 q -0.07,0.06297 -0.15742,0.222148 -0.035,0.09446 0.07,0.127691 0.035,0.03148 0.28512,-0.03149 l 4.18984,-0.825269 0.85711,1.206068 h -3.23758 v 19.615267 h 5.64989 v -19.61591 h -0.0875 l 0.3166,-2.221876 3.74537,-1.206243 q 0.12245,0 0.28512,-0.127691 z m -1.84085,-0.190487 -2.95194,0.888765 -0.47578,3.52324 -1.90452,-2.856675 -3.36457,0.825268 2.06317,-2.920154 -1.58652,-2.602763 3.04727,0.920425 2.22183,-2.412328 0.07,3.301075 z m -1.71421,-0.159176 -1.87269,-0.698278 v -2.09492 l -1.39585,1.523547 -1.80919,-0.666618 -0.035,0.03149 0.98479,1.587042 -1.36437,1.777494 0.035,0.06297 2.15832,-0.571286 1.14223,1.840972 0.035,-0.03148 0.25363,-2.221877 1.84085,-0.50779 z m -7.93521,25.1071 V 25.108064 q -0.22215,0.06297 -0.4443,0.06297 -0.72941,0 -1.20694,-0.47613 -0.50726,-0.507791 -0.50726,-1.174408 0,-0.571286 0.34983,-1.079251 l 1.93636,-2.856694 -1.58652,-2.729719 q -0.25363,-0.47613 -0.25363,-0.95226 0,-0.698278 0.50727,-1.142748 0.47578,-0.47613 1.20694,-0.47613 0.3166,0 0.66644,0.09446 l 3.04727,0.856929 2.22182,-2.285355 q 0.63496,-0.666617 1.42909,-0.666617 0.72942,0 1.20695,0.539626 0.50726,0.539626 0.44429,1.396555 l 0.12244,3.078876 2.85678,1.46005 q 1.07926,0.539626 1.07926,1.587042 0,1.301399 -1.42909,1.682199 h 0.035 l -2.79311,0.888764 -0.07,1.174408 v 21.044252 z"
       style="font-style:normal;font-variant:normal;font-weight:normal;font-stretch:normal;font-size:70.2575px;line-height:1.25;font-family:'Eight Track program 3';-inkscape-font-specification:'Eight Track program 3, ';letter-spacing:6.38969px;word-spacing:0px;fill:#800000;fill-opacity:1;stroke:none;stroke-width:0.793523"
       id="path3189" />
  </g>
</svg>
